<?xml version="1.0" encoding="UTF-8"?>
<!DOCTYPE svg PUBLIC "-//W3C//DTD SVG 1.1//EN" "http://www.w3.org/Graphics/SVG/1.1/DTD/svg11.dtd">
<svg xmlns="http://www.w3.org/2000/svg" version="1.1" width="512px" height="512px" style="shape-rendering:geometricPrecision; text-rendering:geometricPrecision; image-rendering:optimizeQuality; fill-rule:evenodd; clip-rule:evenodd" xmlns:xlink="http://www.w3.org/1999/xlink">
<g><path style="opacity:0.966" fill="#1e81ce" d="M 233.5,15.5 C 326.676,10.6799 400.51,45.6799 455,120.5C 500.8,193.045 508.133,269.379 477,349.5C 441.926,426.813 382.76,474.313 299.5,492C 208.454,505.657 132.287,478.491 71,410.5C 18.3115,343.73 2.97817,269.063 25,186.5C 51.5,105.333 105.333,51.5 186.5,25C 202.057,20.5889 217.723,17.4223 233.5,15.5 Z M 254.5,31.5 C 340.223,34.9233 405.39,72.9233 450,145.5C 480.412,201.541 486.745,260.208 469,321.5C 440.168,404.332 383.001,455.499 297.5,475C 206.386,488.634 132.219,459.467 75,387.5C 30.3273,322.455 20.6607,252.455 46,177.5C 76.3077,103.093 130.474,56.2595 208.5,37C 223.85,33.9971 239.183,32.1638 254.5,31.5 Z"/></g>
<g><path style="opacity:0.958" fill="white" d="M 236.5,47.5 C 244.174,47.3336 251.841,47.5003 259.5,48C 261.333,48.5 262.5,49.6667 263,51.5C 265.215,59.2594 262.382,63.426 254.5,64C 248.167,64.6667 241.833,64.6667 235.5,64C 228.644,58.1 228.977,52.6 236.5,47.5 Z"/></g>
<g><path style="opacity:0.967" fill="white" d="M 205.5,52.5 C 212.025,52.0276 215.359,55.0276 215.5,61.5C 215.635,63.808 214.969,65.808 213.5,67.5C 142.91,86.9238 95.7432,131.257 72,200.5C 66.7915,219.836 63.7915,239.503 63,259.5C 62.5,261.333 61.3333,262.5 59.5,263C 56.0357,263.817 52.7024,263.483 49.5,262C 46.0941,213.538 58.9274,169.704 88,130.5C 118.234,91.1083 157.401,65.1083 205.5,52.5 Z"/></g>
<g><path style="opacity:0.98" fill="white" d="M 176.5,141.5 C 187.852,140.754 198.186,143.587 207.5,150C 223.347,166.014 239.347,181.847 255.5,197.5C 271.653,181.847 287.653,166.014 303.5,150C 323.782,137.298 342.615,139.132 360,155.5C 372.665,173.179 372.665,190.846 360,208.5C 344.319,224.014 328.819,239.681 313.5,255.5C 329.153,271.653 344.986,287.653 361,303.5C 374.033,324.418 371.866,343.585 354.5,361C 337.5,372.333 320.5,372.333 303.5,361C 287.653,344.986 271.653,329.153 255.5,313.5C 239.681,328.819 224.014,344.319 208.5,360C 188.134,373.785 168.967,372.285 151,355.5C 138.75,338.407 138.416,321.074 150,303.5C 166.014,287.653 181.847,271.653 197.5,255.5C 181.847,239.347 166.014,223.347 150,207.5C 139.555,191.929 138.888,175.929 148,159.5C 155.069,149.554 164.569,143.554 176.5,141.5 Z"/></g>
<g><path style="opacity:1" fill="white" d="M 174.5,158.5 C 181.877,157.689 188.877,158.856 195.5,162C 213.5,180 231.5,198 249.5,216C 253.426,219.226 257.426,219.226 261.5,216C 279.5,198 297.5,180 315.5,162C 331.778,154.425 343.945,158.592 352,174.5C 353.378,181.903 352.378,188.903 349,195.5C 331,213.5 313,231.5 295,249.5C 291.774,253.426 291.774,257.426 295,261.5C 313,279.5 331,297.5 349,315.5C 355.359,328.363 353.192,339.53 342.5,349C 333.488,353.665 324.488,353.665 315.5,349C 297.5,331 279.5,313 261.5,295C 257.426,291.774 253.426,291.774 249.5,295C 231.5,313 213.5,331 195.5,349C 179.261,356.405 167.094,352.238 159,336.5C 157.622,329.097 158.622,322.097 162,315.5C 180,297.5 198,279.5 216,261.5C 219.226,257.426 219.226,253.426 216,249.5C 198,231.5 180,213.5 162,195.5C 154.226,179.062 158.393,166.728 174.5,158.5 Z"/></g>
</svg>
