<svg width="56" height="46" viewBox="0 0 56 46" fill="none" xmlns="http://www.w3.org/2000/svg">
<path d="M27.6328 5.77696C28.0332 6.00867 28.55 5.90034 28.8023 5.51259L29.7676 4.02925C30.0773 3.55329 29.9452 2.9147 29.4537 2.63028C28.9622 2.34585 28.3399 2.5481 28.0817 3.05386L27.2769 4.63007C27.0666 5.04209 27.2324 5.54526 27.6328 5.77696Z" fill="#FFD400"/>
<path d="M19.6322 3.63559C20.0949 3.63559 20.4889 3.28255 20.5127 2.82047L20.604 1.05011C20.6332 0.484712 20.1983 0 19.6322 0C19.066 0 18.6312 0.484713 18.6603 1.05011L18.7516 2.82047C18.7755 3.28254 19.1695 3.63559 19.6322 3.63559Z" fill="#FFD400"/>
<path d="M11.6316 5.77697C12.032 5.54526 12.1978 5.04209 11.9874 4.63008L11.1827 3.05386C10.9245 2.5481 10.3022 2.34585 9.81066 2.63028C9.31916 2.9147 9.18707 3.55329 9.49679 4.02925L10.462 5.5126C10.7144 5.90034 11.2312 6.00867 11.6316 5.77697Z" fill="#FFD400"/>
<path d="M5.77696 11.6316C6.00867 11.2312 5.90034 10.7144 5.51259 10.462L4.02925 9.49679C3.55329 9.18707 2.9147 9.31916 2.63028 9.81066C2.34585 10.3022 2.5481 10.9245 3.05386 11.1827L4.63007 11.9874C5.04209 12.1978 5.54526 12.032 5.77696 11.6316Z" fill="#FFD400"/>
<path d="M2.82047 18.7516C3.28255 18.7755 3.63559 19.1695 3.63559 19.6322C3.63559 20.0949 3.28254 20.4889 2.82047 20.5127L1.05011 20.604C0.484713 20.6332 0 20.1983 0 19.6322C0 19.066 0.484712 18.6312 1.05011 18.6603L2.82047 18.7516Z" fill="#FFD400"/>
<path d="M28.7483 9.74043C26.3514 7.53043 23.1494 6.18051 19.6322 6.18051C12.203 6.18051 6.18051 12.203 6.18051 19.6322C6.18051 20.1751 6.21267 20.7105 6.2752 21.2366C8.44923 19.815 11.0476 18.9885 13.8391 18.9885C14.9711 18.9885 16.073 19.1248 17.1285 19.3822C19.465 14.7424 23.6654 11.1998 28.7483 9.74043Z" fill="#FFD400"/>
<path d="M13.8391 45.0575C7.0847 45.0575 1.60919 39.582 1.60919 32.8276C1.60919 26.0733 7.0847 20.5977 13.8391 20.5977C15.3036 20.5977 16.7081 20.8552 18.0096 21.3273C20.5775 15.0462 26.7489 10.6207 33.954 10.6207C43.4635 10.6207 51.1724 18.3297 51.1724 27.8391C51.1724 28.258 51.1575 28.6735 51.128 29.0849C54.0037 30.409 56 33.3162 56 36.6897C56 41.3111 52.2536 45.0575 47.6322 45.0575H13.8391Z" fill="white"/>
</svg>
