<?xml version="1.0" encoding="UTF-8"?>
<!DOCTYPE svg PUBLIC "-//W3C//DTD SVG 1.1//EN" "http://www.w3.org/Graphics/SVG/1.1/DTD/svg11.dtd">
<svg xmlns="http://www.w3.org/2000/svg" version="1.1" width="512px" height="512px" style="shape-rendering:geometricPrecision; text-rendering:geometricPrecision; image-rendering:optimizeQuality; fill-rule:evenodd; clip-rule:evenodd" xmlns:xlink="http://www.w3.org/1999/xlink">
<g><path style="opacity:0.979" fill="white" d="M 283.5,-0.5 C 297.167,-0.5 310.833,-0.5 324.5,-0.5C 404.89,10.5991 462.057,52.9324 496,126.5C 503.53,146.021 508.697,166.021 511.5,186.5C 511.5,200.167 511.5,213.833 511.5,227.5C 498.551,317.287 449.218,377.12 363.5,407C 305.084,422.781 249.75,415.448 197.5,385C 196.167,384.333 194.833,384.333 193.5,385C 156.861,420.639 120.528,456.639 84.5,493C 74.8726,501.809 63.8726,507.976 51.5,511.5C 45.5,511.5 39.5,511.5 33.5,511.5C 16.5,505.833 5.16667,494.5 -0.5,477.5C -0.5,471.5 -0.5,465.5 -0.5,459.5C 3.02445,447.127 9.19112,436.127 18,426.5C 54.3613,390.472 90.3613,354.139 126,317.5C 126.667,316.167 126.667,314.833 126,313.5C 85.0473,240.926 85.3807,168.593 127,96.5C 164.307,40.4189 216.473,8.08557 283.5,-0.5 Z M 288.5,54.5 C 355.055,51.6529 405.221,78.6529 439,135.5C 463.792,187.063 462.126,237.729 434,287.5C 395.239,344.119 341.739,367.285 273.5,357C 209.667,341.167 169.833,301.333 154,237.5C 144.02,173.992 164.187,122.492 214.5,83C 236.905,67.4785 261.572,57.9785 288.5,54.5 Z"/></g>
<g><path style="opacity:0.969" fill="white" d="M 298.5,82.5 C 323.6,80.5164 347.6,84.6831 370.5,95C 380.4,104.3 381.9,114.8 375,126.5C 368.382,133.815 360.216,136.315 350.5,134C 309.184,118.455 273.351,126.622 243,158.5C 236.472,166.717 231.139,175.717 227,185.5C 218.59,195.583 208.423,197.749 196.5,192C 188.781,186.399 185.615,178.899 187,169.5C 207.644,119.359 244.811,90.3593 298.5,82.5 Z"/></g>
</svg>
