<?xml version="1.0" encoding="UTF-8"?>
<!DOCTYPE svg PUBLIC "-//W3C//DTD SVG 1.1//EN" "http://www.w3.org/Graphics/SVG/1.1/DTD/svg11.dtd">
<svg xmlns="http://www.w3.org/2000/svg" version="1.1" width="80px" height="80px" style="shape-rendering:geometricPrecision; text-rendering:geometricPrecision; image-rendering:optimizeQuality; fill-rule:evenodd; clip-rule:evenodd" xmlns:xlink="http://www.w3.org/1999/xlink">
<g><path style="opacity:0.84" fill="#4e7ab5" d="M 34.5,1.5 C 42.4863,0.998044 44.4863,4.16471 40.5,11C 32.424,11.8047 30.424,8.63805 34.5,1.5 Z"/></g>
<g><path style="opacity:1" fill="#84b0e9" d="M 35.5,3.5 C 40.1585,3.01463 41.4919,4.84796 39.5,9C 34.7282,9.81044 33.3948,7.97711 35.5,3.5 Z"/></g>
<g><path style="opacity:0.843" fill="#4e7ab5" d="M 55.5,9.5 C 65.4874,8.33194 68.154,12.1653 63.5,21C 53.4338,22.4671 50.7671,18.6338 55.5,9.5 Z"/></g>
<g><path style="opacity:0.922" fill="#4f7bb6" d="M 12.5,11.5 C 19.1584,10.3445 21.1584,12.8445 18.5,19C 11.7496,20.4689 9.74962,17.9689 12.5,11.5 Z"/></g>
<g><path style="opacity:1" fill="#87b3ec" d="M 57.5,11.5 C 63.4877,11.664 64.821,14.164 61.5,19C 55.4034,19.1475 54.0701,16.6475 57.5,11.5 Z"/></g>
<g><path style="opacity:1" fill="#87b2ec" d="M 14.5,13.5 C 17.8606,14.2032 18.1939,15.5365 15.5,17.5C 13.3576,16.5629 13.0243,15.2296 14.5,13.5 Z"/></g>
<g><path style="opacity:0.9" fill="#4f7bb6" d="M 64.5,31.5 C 75.8179,30.99 78.4846,35.49 72.5,45C 61.1055,45.8027 58.4388,41.3027 64.5,31.5 Z"/></g>
<g><path style="opacity:1" fill="#88b4ed" d="M 66.5,33.5 C 71.6646,33.1619 73.8313,35.4953 73,40.5C 70,44.5 67,44.5 64,40.5C 63.162,37.5193 63.9953,35.1859 66.5,33.5 Z"/></g>
<g><path style="opacity:0.931" fill="#4f7ab4" d="M 3.5,35.5 C 5.5,35.5 7.5,35.5 9.5,35.5C 9.5,37.5 9.5,39.5 9.5,41.5C 7.5,41.5 5.5,41.5 3.5,41.5C 3.5,39.5 3.5,37.5 3.5,35.5 Z"/></g>
<g><path style="opacity:1" fill="#7ca8e2" d="M 5.5,37.5 C 7.33702,37.6395 7.67036,38.3061 6.5,39.5C 5.70245,39.0431 5.36912,38.3764 5.5,37.5 Z"/></g>
<g><path style="opacity:0.854" fill="#4f7ab5" d="M 55.5,51.5 C 66.8598,50.71 70.1931,55.5434 65.5,66C 54.9641,69.997 50.4641,66.497 52,55.5C 52.6897,53.6498 53.8564,52.3164 55.5,51.5 Z"/></g>
<g><path style="opacity:1" fill="#88b4ed" d="M 56.5,53.5 C 64.8068,53.2804 67.1402,56.7804 63.5,64C 57.7867,67.0594 54.4533,65.3927 53.5,59C 53.8627,56.8077 54.8627,54.9744 56.5,53.5 Z"/></g>
<g><path style="opacity:0.835" fill="#4d79b5" d="M 11.5,57.5 C 12.8333,57.5 14.1667,57.5 15.5,57.5C 15.5,58.8333 15.5,60.1667 15.5,61.5C 14.1667,61.5 12.8333,61.5 11.5,61.5C 11.5,60.1667 11.5,58.8333 11.5,57.5 Z"/></g>
<g><path style="opacity:0.854" fill="#4f7ab5" d="M 33.5,61.5 C 44.8598,60.71 48.1931,65.5434 43.5,76C 32.9641,79.997 28.4641,76.497 30,65.5C 30.6897,63.6498 31.8564,62.3164 33.5,61.5 Z"/></g>
<g><path style="opacity:1" fill="#88b4ed" d="M 34.5,63.5 C 42.8068,63.2804 45.1402,66.7804 41.5,74C 35.7867,77.0594 32.4533,75.3927 31.5,69C 31.8627,66.8077 32.8627,64.9744 34.5,63.5 Z"/></g>
</svg>
