<?xml version="1.0" standalone="yes"?>
<svg xmlns="http://www.w3.org/2000/svg" width="225" height="225">
<path style="fill:#ffffff; stroke:none;" d="M0 0L0 225L225 225L225 0L0 0z"/>
<path style="fill:#fddba5; stroke:none;" d="M112 1L113 2L112 1z"/>
<path style="fill:#f7a662; stroke:none;" d="M112 2L103 49L122 49C119.236 34.7488 118.808 14.7836 112 2z"/>
<path style="fill:#fddba5; stroke:none;" d="M111.333 4.66667L111.667 5.33333L111.333 4.66667M113.333 4.66667L113.667 5.33333L113.333 4.66667M110.333 9.66667L110.667 10.3333L110.333 9.66667M114.333 9.66667L114.667 10.3333L114.333 9.66667M109.333 14.6667L109.667 15.3333L109.333 14.6667M115.333 14.6667L115.667 15.3333L115.333 14.6667M56 15L57 19L58 19L59 17L56 15M168 15L167 19L168 19L168 15z"/>
<path style="fill:#facf20; stroke:none;" d="M57 17L58 18L57 17M167 17L168 18L167 17M58 18L72 62L88 53C82.6183 41.3909 68.1627 25.7721 58 18M166 18C156.741 28.5986 142.861 40.2051 137 53L153 62L162.424 33L166 18z"/>
<path style="fill:#fddba5; stroke:none;" d="M108.333 19.6667L108.667 20.3333L108.333 19.6667M116.333 19.6667L116.667 20.3333L116.333 19.6667M58 21L59 22L58 21M166 21L167 22L166 21z"/>
<path style="fill:#fdd966; stroke:none;" d="M62 22L63 23L62 22M162 22L163 23L162 22M63 23L64 24L63 23M161 23L162 24L161 23z"/>
<path style="fill:#fddba5; stroke:none;" d="M59 24L60 25L59 24M64 24L65 25L64 24M107 24L107 27L108 27L107 24M117 24L117 27L118 27L117 24M160 24L161 25L160 24M165 24L166 25L165 24M65 25L66 26L65 25M159 25L160 26L159 25M60 27L61 28L60 27M164 27L165 28L164 27M106 29L106 32L107 32L106 29M118 29L118 32L119 32L118 29M61 30L62 31L61 30z"/>
<path style="fill:#fdd966; stroke:none;" d="M69 30L70 31L69 30M155 30L156 31L155 30z"/>
<path style="fill:#fddba5; stroke:none;" d="M163 30L164 31L163 30M70 31L71 32L70 31z"/>
<path style="fill:#fdd966; stroke:none;" d="M154 31L155 32L154 31M62 32L63 33L62 32z"/>
<path style="fill:#fddba5; stroke:none;" d="M71 32L72 33L71 32M153 32L154 33L153 32z"/>
<path style="fill:#fdd966; stroke:none;" d="M162 32L163 33L162 32z"/>
<path style="fill:#fddba5; stroke:none;" d="M62 33L63 34L62 33M72 33L73 34L72 33M152 33L153 34L152 33M162 33L163 34L162 33M105 34L105 37L106 37L105 34M119 34L119 37L120 37L119 34z"/>
<path style="fill:#fdd966; stroke:none;" d="M63 35L64 36L63 35M161 35L162 36L161 35z"/>
<path style="fill:#fddba5; stroke:none;" d="M63 36L64 37L63 36M161 36L162 37L161 36z"/>
<path style="fill:#fdd966; stroke:none;" d="M75 37L76 38L75 37M149 37L150 38L149 37M64 38L65 39L64 38M76 38L77 39L76 38M148 38L149 39L148 38M160 38L161 39L160 38z"/>
<path style="fill:#fddba5; stroke:none;" d="M64 39L65 40L64 39M77 39L78 40L77 39M147 39L148 40L147 39M160 39L161 40L160 39M78 40L79 41L78 40M104.333 40.6667L104.667 41.3333L104.333 40.6667M120.333 40.6667L120.667 41.3333L120.333 40.6667M146 40L147 41L146 40z"/>
<path style="fill:#fdd966; stroke:none;" d="M65 41L66 42L65 41z"/>
<path style="fill:#fddba5; stroke:none;" d="M79 41L80 42L79 41M145 41L146 42L145 41z"/>
<path style="fill:#fdd966; stroke:none;" d="M159 41L160 42L159 41z"/>
<path style="fill:#fddba5; stroke:none;" d="M65 42L66 43L65 42M159 42L160 43L159 42z"/>
<path style="fill:#fdd966; stroke:none;" d="M66 44L67 45L66 44M158 44L159 45L158 44z"/>
<path style="fill:#fddba5; stroke:none;" d="M66 45L67 46L66 45z"/>
<path style="fill:#fdd966; stroke:none;" d="M82 45L83 46L82 45z"/>
<path style="fill:#fddba5; stroke:none;" d="M103.333 45.6667L103.667 46.3333L103.333 45.6667M121.333 45.6667L121.667 46.3333L121.333 45.6667M158 45L159 46L158 45z"/>
<path style="fill:#fdd966; stroke:none;" d="M83 46L84 47L83 46M141 46L142 47L141 46M67 47L68 48L67 47z"/>
<path style="fill:#fddba5; stroke:none;" d="M84 47L85 48L84 47z"/>
<path style="fill:#fdd966; stroke:none;" d="M140 47L141 48L140 47M157 47L158 48L157 47z"/>
<path style="fill:#fddba5; stroke:none;" d="M67 48L68 49L67 48M85 48L86 49L85 48M139 48L140 49L139 48M157 48L158 49L157 48M86 49L87 50L86 49M138 49L139 50L138 49z"/>
<path style="fill:#fdd966; stroke:none;" d="M68 50L69 51L68 50M156 50L157 51L156 50z"/>
<path style="fill:#fddba5; stroke:none;" d="M68 51L69 52L68 51z"/>
<path style="fill:#fdd966; stroke:none;" d="M88 52L89 53L88 52M136 52L137 53L136 52M69 53L70 54L69 53z"/>
<path style="fill:#fddba5; stroke:none;" d="M87 53L88 54L87 53M137 53L138 54L137 53z"/>
<path style="fill:#fdd966; stroke:none;" d="M155 53L156 54L155 53M85 54L86 55L85 54z"/>
<path style="fill:#fddba5; stroke:none;" d="M106 54L106 55L119 55L106 54z"/>
<path style="fill:#fdd966; stroke:none;" d="M139 54L140 55L139 54z"/>
<path style="fill:#fddba5; stroke:none;" d="M100.667 55.3333L101.333 55.6667L100.667 55.3333z"/>
<path style="fill:#fdd966; stroke:none;" d="M102 55L103 56L102 55z"/>
<path style="fill:#facf20; stroke:none;" d="M103 55.439C95.155 56.6739 87.6499 59.5476 81 63.865C29.9041 97.0385 61.1224 178.169 121 169.572C129.183 168.397 137.037 165.633 144 161.134C195.602 127.798 163.115 45.9764 103 55.439z"/>
<path style="fill:#fdd966; stroke:none;" d="M121.667 55.3333L122.333 55.6667L121.667 55.3333z"/>
<path style="fill:#fddba5; stroke:none;" d="M123.667 55.3333L124.333 55.6667L123.667 55.3333M15 56L19 58L19 57L15 56M70 56L71 57L70 56M82 56L83 57L82 56M96 56L97 57L96 56z"/>
<path style="fill:#fdd966; stroke:none;" d="M97 56L98 57L97 56M127 56L128 57L127 56z"/>
<path style="fill:#fddba5; stroke:none;" d="M128 56L129 57L128 56M142 56L143 57L142 56M154 56L155 57L154 56M208 56L207 58L206 57L206 58L208 59L210 56L208 56z"/>
<path style="fill:#f7a662; stroke:none;" d="M17 57L18 58L17 57z"/>
<path style="fill:#fddba5; stroke:none;" d="M80 57L81 58L80 57M93 57L94 58L93 57z"/>
<path style="fill:#fdd966; stroke:none;" d="M94 57L95 58L94 57M130 57L131 58L130 57z"/>
<path style="fill:#fddba5; stroke:none;" d="M131 57L132 58L131 57M144 57L145 58L144 57z"/>
<path style="fill:#f7a662; stroke:none;" d="M207 57L208 58L207 57M18 58C26.3712 69.3736 41.4037 80.9274 53 89L62 72L18 58z"/>
<path style="fill:#fddba5; stroke:none;" d="M21 58L22 59L21 58z"/>
<path style="fill:#fdd966; stroke:none;" d="M78 58L79 59L78 58z"/>
<path style="fill:#fddba5; stroke:none;" d="M90 58L91 59L90 58z"/>
<path style="fill:#fdd966; stroke:none;" d="M91 58L92 59L91 58M133 58L134 59L133 58M146 58L147 59L146 58z"/>
<path style="fill:#fddba5; stroke:none;" d="M203 58L204 59L203 58z"/>
<path style="fill:#f7a662; stroke:none;" d="M163 72L172 89C183.596 80.9274 198.629 69.3737 207 58L163 72z"/>
<path style="fill:#fddba5; stroke:none;" d="M24 59L25 60L24 59M71 59L72 60L71 59M88 59L89 60L88 59z"/>
<path style="fill:#fdd966; stroke:none;" d="M135 59L136 60L135 59z"/>
<path style="fill:#fddba5; stroke:none;" d="M136 59L137 60L136 59M153 59L154 60L153 59M200 59L201 60L200 59M27 60L28 61L27 60M75 60L76 61L75 60M86 60L87 61L86 60M138 60L139 61L138 60M149 60L150 61L149 60M197 60L198 61L197 60M30 61L31 62L30 61M73 61L74 62L73 61M84 61L85 62L84 61M140 61L141 62L140 61M151 61L152 62L151 61M194 61L195 62L194 61M33 62L34 63L33 62M82 62L83 63L82 62z"/>
<path style="fill:#fdd966; stroke:none;" d="M83 62L84 63L83 62M141 62L142 63L141 62z"/>
<path style="fill:#fddba5; stroke:none;" d="M191 62L192 63L191 62M23 63L24 64L23 63M36 63L37 64L36 63z"/>
<path style="fill:#fdd966; stroke:none;" d="M81 63L82 64L81 63M143 63L144 64L143 63z"/>
<path style="fill:#fddba5; stroke:none;" d="M188 63L189 64L188 63M201 63L202 64L201 63M24 64L25 65L24 64M39 64L40 65L39 64M79 64L80 65L79 64M145 64L146 65L145 64M185 64L186 65L185 64M200 64L201 65L200 64M25 65L26 66L25 65M41.6667 65.3333L42.3333 65.6667L41.6667 65.3333z"/>
<path style="fill:#fdd966; stroke:none;" d="M78 65L79 66L78 65z"/>
<path style="fill:#fddba5; stroke:none;" d="M146 65L147 66L146 65M182.667 65.3333L183.333 65.6667L182.667 65.3333M199 65L200 66L199 65M44.6667 66.3333L45.3333 66.6667L44.6667 66.3333z"/>
<path style="fill:#fdd966; stroke:none;" d="M77 66L78 67L77 66M147 66L148 67L147 66z"/>
<path style="fill:#fddba5; stroke:none;" d="M179.667 66.3333L180.333 66.6667L179.667 66.3333M47.6667 67.3333L48.3333 67.6667L47.6667 67.3333M75 67L76 68L75 67M176.667 67.3333L177.333 67.6667L176.667 67.3333M50.6667 68.3333L51.3333 68.6667L50.6667 68.3333M74 68L75 69L74 68M150 68L151 69L150 68M173.667 68.3333L174.333 68.6667L173.667 68.3333M30 69L31 70L30 69M53 69L54 70L53 69M73 69L74 70L73 69M151 69L152 70L151 69M171 69L172 70L171 69M194 69L195 70L194 69M31 70L32 71L31 70M56 70L57 71L56 70z"/>
<path style="fill:#fdd966; stroke:none;" d="M72 70L73 71L72 70M152 70L153 71L152 70z"/>
<path style="fill:#fddba5; stroke:none;" d="M168 70L169 71L168 70M193 70L194 71L193 70M32 71L33 72L32 71M59 71L60 72L59 71z"/>
<path style="fill:#fdd966; stroke:none;" d="M71 71L72 72L71 71M153 71L154 72L153 71z"/>
<path style="fill:#fddba5; stroke:none;" d="M165 71L166 72L165 71M192 71L193 72L192 71M33 72L34 73L33 72z"/>
<path style="fill:#fdd966; stroke:none;" d="M70 72L71 73L70 72M154 72L155 73L154 72z"/>
<path style="fill:#fddba5; stroke:none;" d="M191 72L192 73L191 72M61 73L62 74L61 73M69 73L70 74L69 73M155 73L156 74L155 73M163 73L164 74L163 73M68 74L69 75L68 74M156 74L157 75L156 74M60 75L61 76L60 75M67 75L68 76L67 75M164 75L165 76L164 75M38 76L39 77L38 76M186 76L187 77L186 76M39 77L40 78L39 77z"/>
<path style="fill:#fdd966; stroke:none;" d="M66 77L67 78L66 77M158 77L159 78L158 77z"/>
<path style="fill:#fddba5; stroke:none;" d="M185 77L186 78L185 77M40 78L41 79L40 78M58 78L59 79L58 78z"/>
<path style="fill:#fdd966; stroke:none;" d="M65 78L66 79L65 78z"/>
<path style="fill:#fddba5; stroke:none;" d="M159 78L160 79L159 78M166 78L167 79L166 78M184 78L185 79L184 78M41 79L42 80L41 79M64 79L65 80L64 79M160 79L161 80L160 79M183 79L184 80L183 79M57 80L58 81L57 80M167 80L168 81L167 80z"/>
<path style="fill:#fdd966; stroke:none;" d="M63 81L64 82L63 81M161 81L162 82L161 81z"/>
<path style="fill:#fddba5; stroke:none;" d="M56 82L57 83L56 82M168 82L169 83L168 82M46 83L47 84L46 83z"/>
<path style="fill:#fdd966; stroke:none;" d="M62 83L63 84L62 83M162 83L163 84L162 83z"/>
<path style="fill:#fddba5; stroke:none;" d="M178 83L179 84L178 83M47 84L48 85L47 84M61 84L62 85L61 84M163 84L164 85L163 84M177 84L178 85L177 84M48 85L49 86L48 85M54 85L55 86L54 85M170 85L171 86L170 85M176 85L177 86L176 85M49 86L50 87L49 86M60 86L61 87L60 86M164 86L165 87L164 86M175 86L176 87L175 86M53 87L54 88L53 87M171 87L172 88L171 87M59 88L60 89L59 88M165 88L166 89L165 88z"/>
<path style="fill:#fdd966; stroke:none;" d="M59 89L60 90L59 89M165 89L166 90L165 89M58 91L59 92L58 91M166 91L167 92L166 91z"/>
<path style="fill:#fddba5; stroke:none;" d="M57 93L58 94L57 93M167 93L168 94L167 93z"/>
<path style="fill:#fdd966; stroke:none;" d="M57 94L58 95L57 94M167 94L168 95L167 94z"/>
<path style="fill:#fddba5; stroke:none;" d="M56 96L57 97L56 96M168 96L169 97L168 96z"/>
<path style="fill:#fdd966; stroke:none;" d="M56 97L57 98L56 97M168 97L169 98L168 97z"/>
<path style="fill:#fddba5; stroke:none;" d="M55.3333 100.667L55.6667 101.333L55.3333 100.667M169.333 100.667L169.667 101.333L169.333 100.667z"/>
<path style="fill:#fdd966; stroke:none;" d="M55 102L56 103L55 102M169.333 102.667L169.667 103.333L169.333 102.667z"/>
<path style="fill:#fddba5; stroke:none;" d="M45 103L46 104L45 103z"/>
<path style="fill:#fdd966; stroke:none;" d="M46 103L47 104L46 103z"/>
<path style="fill:#facf20; stroke:none;" d="M2 112L2 113L49 122L49 103L2 112M176 103L176 122L223 113L176 103z"/>
<path style="fill:#fdd966; stroke:none;" d="M178 103L179 104L178 103z"/>
<path style="fill:#fddba5; stroke:none;" d="M179 103L180 104L179 103M40 104L41 105L40 104z"/>
<path style="fill:#fdd966; stroke:none;" d="M41 104L42 105L41 104M183 104L184 105L183 104z"/>
<path style="fill:#fddba5; stroke:none;" d="M184 104L185 105L184 104M35 105L36 106L35 105z"/>
<path style="fill:#fdd966; stroke:none;" d="M36 105L37 106L36 105M188 105L189 106L188 105z"/>
<path style="fill:#fddba5; stroke:none;" d="M189 105L190 106L189 105M29.6667 106.333L30.3333 106.667L29.6667 106.333z"/>
<path style="fill:#fdd966; stroke:none;" d="M31 106L32 107L31 106z"/>
<path style="fill:#fddba5; stroke:none;" d="M54 106L54 119L55 119L54 106M170 106L170 119L171 119L170 106z"/>
<path style="fill:#fdd966; stroke:none;" d="M193 106L194 107L193 106z"/>
<path style="fill:#fddba5; stroke:none;" d="M194.667 106.333L195.333 106.667L194.667 106.333M24.6667 107.333L25.3333 107.667L24.6667 107.333z"/>
<path style="fill:#fdd966; stroke:none;" d="M26 107L27 108L26 107M198 107L199 108L198 107z"/>
<path style="fill:#fddba5; stroke:none;" d="M199.667 107.333L200.333 107.667L199.667 107.333M19.6667 108.333L20.3333 108.667L19.6667 108.333z"/>
<path style="fill:#fdd966; stroke:none;" d="M21 108L22 109L21 108M203 108L204 109L203 108z"/>
<path style="fill:#fddba5; stroke:none;" d="M204.667 108.333L205.333 108.667L204.667 108.333M14.6667 109.333L15.3333 109.667L14.6667 109.333z"/>
<path style="fill:#fdd966; stroke:none;" d="M16 109L17 110L16 109M208 109L209 110L208 109z"/>
<path style="fill:#fddba5; stroke:none;" d="M209.667 109.333L210.333 109.667L209.667 109.333M9.66667 110.333L10.3333 110.667L9.66667 110.333z"/>
<path style="fill:#fdd966; stroke:none;" d="M11 110L12 111L11 110M213 110L214 111L213 110z"/>
<path style="fill:#fddba5; stroke:none;" d="M214.667 110.333L215.333 110.667L214.667 110.333M4.66667 111.333L5.33333 111.667L4.66667 111.333z"/>
<path style="fill:#fdd966; stroke:none;" d="M6 111L7 112L6 111M218 111L219 112L218 111z"/>
<path style="fill:#fddba5; stroke:none;" d="M219.667 111.333L220.333 111.667L219.667 111.333z"/>
<path style="fill:#fdd966; stroke:none;" d="M1 112L2 113L1 112M223 112L224 113L223 112z"/>
<path style="fill:#fddba5; stroke:none;" d="M4.66667 113.333L5.33333 113.667L4.66667 113.333z"/>
<path style="fill:#fdd966; stroke:none;" d="M6 113L7 114L6 113M218 113L219 114L218 113z"/>
<path style="fill:#fddba5; stroke:none;" d="M219.667 113.333L220.333 113.667L219.667 113.333M9.66667 114.333L10.3333 114.667L9.66667 114.333z"/>
<path style="fill:#fdd966; stroke:none;" d="M11 114L12 115L11 114M213 114L214 115L213 114z"/>
<path style="fill:#fddba5; stroke:none;" d="M214.667 114.333L215.333 114.667L214.667 114.333M14.6667 115.333L15.3333 115.667L14.6667 115.333z"/>
<path style="fill:#fdd966; stroke:none;" d="M16 115L17 116L16 115M208 115L209 116L208 115z"/>
<path style="fill:#fddba5; stroke:none;" d="M209.667 115.333L210.333 115.667L209.667 115.333M19.6667 116.333L20.3333 116.667L19.6667 116.333z"/>
<path style="fill:#fdd966; stroke:none;" d="M21 116L22 117L21 116M203 116L204 117L203 116z"/>
<path style="fill:#fddba5; stroke:none;" d="M204.667 116.333L205.333 116.667L204.667 116.333M24.6667 117.333L25.3333 117.667L24.6667 117.333z"/>
<path style="fill:#fdd966; stroke:none;" d="M26 117L27 118L26 117M198 117L199 118L198 117z"/>
<path style="fill:#fddba5; stroke:none;" d="M199.667 117.333L200.333 117.667L199.667 117.333M29.6667 118.333L30.3333 118.667L29.6667 118.333z"/>
<path style="fill:#fdd966; stroke:none;" d="M31 118L32 119L31 118M193 118L194 119L193 118z"/>
<path style="fill:#fddba5; stroke:none;" d="M194.667 118.333L195.333 118.667L194.667 118.333M35 119L36 120L35 119z"/>
<path style="fill:#fdd966; stroke:none;" d="M36 119L37 120L36 119M188 119L189 120L188 119z"/>
<path style="fill:#fddba5; stroke:none;" d="M189 119L190 120L189 119M40 120L41 121L40 120z"/>
<path style="fill:#fdd966; stroke:none;" d="M41 120L42 121L41 120M183 120L184 121L183 120z"/>
<path style="fill:#fddba5; stroke:none;" d="M184 120L185 121L184 120M45 121L46 122L45 121z"/>
<path style="fill:#fdd966; stroke:none;" d="M46 121L47 122L46 121M169.333 121.667L169.667 122.333L169.333 121.667M178 121L179 122L178 121z"/>
<path style="fill:#fddba5; stroke:none;" d="M179 121L180 122L179 121z"/>
<path style="fill:#fdd966; stroke:none;" d="M55 122L56 123L55 122z"/>
<path style="fill:#fddba5; stroke:none;" d="M55.3333 123.667L55.6667 124.333L55.3333 123.667M169.333 123.667L169.667 124.333L169.333 123.667z"/>
<path style="fill:#fdd966; stroke:none;" d="M56 127L57 128L56 127M168 127L169 128L168 127z"/>
<path style="fill:#fddba5; stroke:none;" d="M56 128L57 129L56 128M168 128L169 129L168 128z"/>
<path style="fill:#fdd966; stroke:none;" d="M57 130L58 131L57 130M167 130L168 131L167 130z"/>
<path style="fill:#fddba5; stroke:none;" d="M57 131L58 132L57 131M167 131L168 132L167 131z"/>
<path style="fill:#fdd966; stroke:none;" d="M58 133L59 134L58 133M166 133L167 134L166 133z"/>
<path style="fill:#fddba5; stroke:none;" d="M58 134L59 135L58 134z"/>
<path style="fill:#fdd966; stroke:none;" d="M165 135L166 136L165 135z"/>
<path style="fill:#f7a662; stroke:none;" d="M52 136L17 168L62 153L52 136z"/>
<path style="fill:#fddba5; stroke:none;" d="M59 136L60 137L59 136M165 136L166 137L165 136z"/>
<path style="fill:#f7a662; stroke:none;" d="M172 136L163 153L208 168C199.542 156.241 183.891 144.278 172 136z"/>
<path style="fill:#fddba5; stroke:none;" d="M53 137L54 138L53 137M171 137L172 138L171 137M49 138L50 139L49 138M60 138L61 139L60 138M164 138L165 139L164 138M175 138L176 139L175 138M48 139L49 140L48 139M54 139L55 140L54 139M170 139L171 140L170 139M176 139L177 140L176 139M47 140L48 141L47 140M61 140L62 141L61 140M163 140L164 141L163 140M177 140L178 141L177 140M46 141L47 142L46 141z"/>
<path style="fill:#fdd966; stroke:none;" d="M62 141L63 142L62 141M162 141L163 142L162 141z"/>
<path style="fill:#fddba5; stroke:none;" d="M178 141L179 142L178 141M56 142L57 143L56 142M168 142L169 143L168 142z"/>
<path style="fill:#fdd966; stroke:none;" d="M63 143L64 144L63 143M161 143L162 144L161 143z"/>
<path style="fill:#fddba5; stroke:none;" d="M57 144L58 145L57 144M167 144L168 145L167 144M41 145L42 146L41 145M64 145L65 146L64 145M160 145L161 146L160 145M183 145L184 146L183 145M40 146L41 147L40 146M58 146L59 147L58 146M65 146L66 147L65 146M159 146L160 147L159 146M166 146L167 147L166 146M184 146L185 147L184 146M39 147L40 148L39 147z"/>
<path style="fill:#fdd966; stroke:none;" d="M66 147L67 148L66 147M158 147L159 148L158 147z"/>
<path style="fill:#fddba5; stroke:none;" d="M185 147L186 148L185 147M38 148L39 149L38 148M186 148L187 149L186 148M60 149L61 150L60 149M67 149L68 150L67 149M164 149L165 150L164 149M68 150L69 151L68 150M156 150L157 151L156 150M61 151L62 152L61 151M69 151L70 152L69 151M155 151L156 152L155 151M163 151L164 152L163 151M33 152L34 153L33 152z"/>
<path style="fill:#fdd966; stroke:none;" d="M70 152L71 153L70 152M154 152L155 153L154 152z"/>
<path style="fill:#fddba5; stroke:none;" d="M191 152L192 153L191 152M32 153L33 154L32 153M59 153L60 154L59 153z"/>
<path style="fill:#fdd966; stroke:none;" d="M71 153L72 154L71 153M153 153L154 154L153 153z"/>
<path style="fill:#fddba5; stroke:none;" d="M165 153L166 154L165 153M192 153L193 154L192 153M31 154L32 155L31 154M56 154L57 155L56 154z"/>
<path style="fill:#fdd966; stroke:none;" d="M72 154L73 155L72 154M152 154L153 155L152 154z"/>
<path style="fill:#fddba5; stroke:none;" d="M168 154L169 155L168 154M193 154L194 155L193 154M30 155L31 156L30 155M53 155L54 156L53 155M73 155L74 156L73 155M151 155L152 156L151 155M171 155L172 156L171 155M194 155L195 156L194 155M50.6667 156.333L51.3333 156.667L50.6667 156.333M74 156L75 157L74 156M150 156L151 157L150 156M173.667 156.333L174.333 156.667L173.667 156.333M47.6667 157.333L48.3333 157.667L47.6667 157.333M176.667 157.333L177.333 157.667L176.667 157.333M44.6667 158.333L45.3333 158.667L44.6667 158.333z"/>
<path style="fill:#fdd966; stroke:none;" d="M77 158L78 159L77 158M147 158L148 159L147 158z"/>
<path style="fill:#fddba5; stroke:none;" d="M179.667 158.333L180.333 158.667L179.667 158.333M25 159L26 160L25 159M41.6667 159.333L42.3333 159.667L41.6667 159.333z"/>
<path style="fill:#fdd966; stroke:none;" d="M78 159L79 160L78 159z"/>
<path style="fill:#fddba5; stroke:none;" d="M146 159L147 160L146 159M182.667 159.333L183.333 159.667L182.667 159.333M199 159L200 160L199 159M24 160L25 161L24 160M39 160L40 161L39 160M79 160L80 161L79 160M145 160L146 161L145 160M185 160L186 161L185 160M200 160L201 161L200 160M23 161L24 162L23 161M36 161L37 162L36 161z"/>
<path style="fill:#fdd966; stroke:none;" d="M81 161L82 162L81 161M143 161L144 162L143 161z"/>
<path style="fill:#fddba5; stroke:none;" d="M188 161L189 162L188 161M201 161L202 162L201 161M33 162L34 163L33 162z"/>
<path style="fill:#fdd966; stroke:none;" d="M83 162L84 163L83 162M141 162L142 163L141 162z"/>
<path style="fill:#fddba5; stroke:none;" d="M191 162L192 163L191 162M30 163L31 164L30 163z"/>
<path style="fill:#facf20; stroke:none;" d="M72 163L57 208C67.481 200.286 82.525 183.81 88 172L72 163z"/>
<path style="fill:#fddba5; stroke:none;" d="M73 163L74 164L73 163M84 163L85 164L84 163M140 163L141 164L140 163M151 163L152 164L151 163z"/>
<path style="fill:#facf20; stroke:none;" d="M152 163L137 172C142.418 183.829 157.524 200.29 168 208L152 163z"/>
<path style="fill:#fddba5; stroke:none;" d="M194 163L195 164L194 163M27 164L28 165L27 164M75 164L76 165L75 164M86 164L87 165L86 164M138 164L139 165L138 164M149 164L150 165L149 164M197 164L198 165L197 164M24 165L25 166L24 165M71 165L72 166L71 165M88 165L89 166L88 165z"/>
<path style="fill:#fdd966; stroke:none;" d="M135 165L136 166L135 165z"/>
<path style="fill:#fddba5; stroke:none;" d="M136 165L137 166L136 165M153 165L154 166L153 165M200 165L201 166L200 165M17 166L18 167L17 166M21 166L22 167L21 166z"/>
<path style="fill:#fdd966; stroke:none;" d="M78 166L79 167L78 166z"/>
<path style="fill:#fddba5; stroke:none;" d="M90 166L91 167L90 166z"/>
<path style="fill:#fdd966; stroke:none;" d="M91 166L92 167L91 166M133 166L134 167L133 166M146 166L147 167L146 166z"/>
<path style="fill:#fddba5; stroke:none;" d="M203 166L204 167L203 166M207 166L208 167L207 166M16 167L15 169L17 169L16 167M18 167L19 168L18 167M80 167L81 168L80 167M93 167L94 168L93 167z"/>
<path style="fill:#fdd966; stroke:none;" d="M94 167L95 168L94 167M130 167L131 168L130 167z"/>
<path style="fill:#fddba5; stroke:none;" d="M131 167L132 168L131 167M144 167L145 168L144 167M206 167L207 168L206 167M208 167L208 169L210 169L208 167M70 168L71 169L70 168M82 168L83 169L82 168M96 168L97 169L96 168z"/>
<path style="fill:#fdd966; stroke:none;" d="M97 168L98 169L97 168z"/>
<path style="fill:#fddba5; stroke:none;" d="M127.667 168.333L128.333 168.667L127.667 168.333M142 168L143 169L142 168M154 168L155 169L154 168M100.667 169.333L101.333 169.667L100.667 169.333z"/>
<path style="fill:#fdd966; stroke:none;" d="M102 169L103 170L102 169M121.667 169.333L122.333 169.667L121.667 169.333z"/>
<path style="fill:#fddba5; stroke:none;" d="M123.667 169.333L124.333 169.667L123.667 169.333z"/>
<path style="fill:#fdd966; stroke:none;" d="M85 170L86 171L85 170z"/>
<path style="fill:#fddba5; stroke:none;" d="M107 170L107 171L119 171L107 170z"/>
<path style="fill:#fdd966; stroke:none;" d="M139 170L140 171L139 170M69 171L70 172L69 171z"/>
<path style="fill:#fddba5; stroke:none;" d="M87 171L88 172L87 171M137 171L138 172L137 171z"/>
<path style="fill:#fdd966; stroke:none;" d="M155 171L156 172L155 171M88 172L89 173L88 172M136 172L137 173L136 172z"/>
<path style="fill:#fddba5; stroke:none;" d="M68 173L69 174L68 173z"/>
<path style="fill:#fdd966; stroke:none;" d="M68 174L69 175L68 174M156 174L157 175L156 174z"/>
<path style="fill:#fddba5; stroke:none;" d="M86 175L87 176L86 175M138 175L139 176L138 175M67 176L68 177L67 176M85 176L86 177L85 176z"/>
<path style="fill:#f7a662; stroke:none;" d="M103 176L112 223L113 223L122 176L103 176z"/>
<path style="fill:#fddba5; stroke:none;" d="M139 176L140 177L139 176M157 176L158 177L157 176z"/>
<path style="fill:#fdd966; stroke:none;" d="M67 177L68 178L67 177z"/>
<path style="fill:#fddba5; stroke:none;" d="M84 177L85 178L84 177z"/>
<path style="fill:#fdd966; stroke:none;" d="M140 177L141 178L140 177M157 177L158 178L157 177M83 178L84 179L83 178z"/>
<path style="fill:#fddba5; stroke:none;" d="M103.333 178.667L103.667 179.333L103.333 178.667M121.333 178.667L121.667 179.333L121.333 178.667z"/>
<path style="fill:#fdd966; stroke:none;" d="M141 178L142 179L141 178z"/>
<path style="fill:#fddba5; stroke:none;" d="M66 179L67 180L66 179z"/>
<path style="fill:#fdd966; stroke:none;" d="M82 179L83 180L82 179z"/>
<path style="fill:#fddba5; stroke:none;" d="M158 179L159 180L158 179z"/>
<path style="fill:#fdd966; stroke:none;" d="M66 180L67 181L66 180M158 180L159 181L158 180z"/>
<path style="fill:#fddba5; stroke:none;" d="M65 182L66 183L65 182M159 182L160 183L159 182z"/>
<path style="fill:#fdd966; stroke:none;" d="M65 183L66 184L65 183z"/>
<path style="fill:#fddba5; stroke:none;" d="M79 183L80 184L79 183M104.333 183.667L104.667 184.333L104.333 183.667M120.333 183.667L120.667 184.333L120.333 183.667M145 183L146 184L145 183z"/>
<path style="fill:#fdd966; stroke:none;" d="M159 183L160 184L159 183z"/>
<path style="fill:#fddba5; stroke:none;" d="M78 184L79 185L78 184M146 184L147 185L146 184M64 185L65 186L64 185M77 185L78 186L77 185M147 185L148 186L147 185M160 185L161 186L160 185z"/>
<path style="fill:#fdd966; stroke:none;" d="M64 186L65 187L64 186M76 186L77 187L76 186M148 186L149 187L148 186M160 186L161 187L160 186M75 187L76 188L75 187M149 187L150 188L149 187z"/>
<path style="fill:#fddba5; stroke:none;" d="M63 188L64 189L63 188M105 188L105 191L106 191L105 188M119 188L119 191L120 191L119 188M161 188L162 189L161 188z"/>
<path style="fill:#fdd966; stroke:none;" d="M63 189L64 190L63 189M161 189L162 190L161 189z"/>
<path style="fill:#fddba5; stroke:none;" d="M62 191L63 192L62 191M72 191L73 192L72 191M152 191L153 192L152 191M162 191L163 192L162 191z"/>
<path style="fill:#fdd966; stroke:none;" d="M62 192L63 193L62 192z"/>
<path style="fill:#fddba5; stroke:none;" d="M71 192L72 193L71 192M153 192L154 193L153 192z"/>
<path style="fill:#fdd966; stroke:none;" d="M162 192L163 193L162 192z"/>
<path style="fill:#fddba5; stroke:none;" d="M70 193L71 194L70 193M106 193L106 196L107 196L106 193M118 193L118 196L119 196L118 193z"/>
<path style="fill:#fdd966; stroke:none;" d="M154 193L155 194L154 193z"/>
<path style="fill:#fddba5; stroke:none;" d="M61 194L62 195L61 194z"/>
<path style="fill:#fdd966; stroke:none;" d="M69 194L70 195L69 194M155 194L156 195L155 194z"/>
<path style="fill:#fddba5; stroke:none;" d="M163 194L164 195L163 194M60 197L61 198L60 197M164 197L165 198L164 197M107 198L107 201L108 201L107 198M117 198L117 201L118 201L117 198M65 199L66 200L65 199M159 199L160 200L159 199M59 200L60 201L59 200M64 200L65 201L64 200M160 200L161 201L160 200M165 200L166 201L165 200z"/>
<path style="fill:#fdd966; stroke:none;" d="M63 201L64 202L63 201M161 201L162 202L161 201M62 202L63 203L62 202M162 202L163 203L162 202z"/>
<path style="fill:#fddba5; stroke:none;" d="M58 203L59 204L58 203M166 203L167 204L166 203M108.333 204.667L108.667 205.333L108.333 204.667M116.333 204.667L116.667 205.333L116.333 204.667M57 206L58 207L57 206M167 206L168 207L167 206M58 207L59 208L58 207M166 207L167 208L166 207M56 208L56 210L58 208L56 208M167 208L168 209L167 208M109.333 209.667L109.667 210.333L109.333 209.667M115.333 209.667L115.667 210.333L115.333 209.667M168 209L169 210L168 209M110.333 214.667L110.667 215.333L110.333 214.667M114.333 214.667L114.667 215.333L114.333 214.667M111.333 219.667L111.667 220.333L111.333 219.667M113.333 219.667L113.667 220.333L113.333 219.667M112 223L113 224L112 223z"/>
</svg>
