<?xml version="1.0" encoding="UTF-8"?>
<!DOCTYPE svg PUBLIC "-//W3C//DTD SVG 1.1//EN" "http://www.w3.org/Graphics/SVG/1.1/DTD/svg11.dtd">
<svg xmlns="http://www.w3.org/2000/svg" version="1.1" width="225px" height="225px" style="shape-rendering:geometricPrecision; text-rendering:geometricPrecision; image-rendering:optimizeQuality; fill-rule:evenodd; clip-rule:evenodd" xmlns:xlink="http://www.w3.org/1999/xlink">
<g><path style="opacity:1" fill="none" d="M -0.5,-0.5 C 1.83333,-0.5 4.16667,-0.5 6.5,-0.5C 3.83333,1.5 1.5,3.83333 -0.5,6.5C -0.5,4.16667 -0.5,1.83333 -0.5,-0.5 Z"/></g>
<g><path style="opacity:1" fill="none" d="M 6.5,-0.5 C 76.1667,-0.5 145.833,-0.5 215.5,-0.5C 219.33,0.651058 222.33,2.98439 224.5,6.5C 224.5,76.1667 224.5,145.833 224.5,215.5C 223.268,219.734 220.601,222.734 216.5,224.5C 146.5,224.5 76.5,224.5 6.5,224.5C 3.83333,222.5 1.5,220.167 -0.5,217.5C -0.5,147.167 -0.5,76.8333 -0.5,6.5C 1.5,3.83333 3.83333,1.5 6.5,-0.5 Z"/></g>
<g><path style="opacity:1" fill="none" d="M 215.5,-0.5 C 218.5,-0.5 221.5,-0.5 224.5,-0.5C 224.5,1.83333 224.5,4.16667 224.5,6.5C 222.33,2.98439 219.33,0.651058 215.5,-0.5 Z"/></g>
<g><path style="opacity:1" fill="#fafafa" d="M 107.5,40.5 C 114.128,39.231 118.961,41.5644 122,47.5C 122.5,65.4969 122.667,83.4969 122.5,101.5C 140.503,101.333 158.503,101.5 176.5,102C 183.296,105.422 185.129,110.589 182,117.5C 180.457,119.378 178.624,120.878 176.5,122C 158.503,122.5 140.503,122.667 122.5,122.5C 122.667,140.503 122.5,158.503 122,176.5C 118.96,182.603 114.126,184.769 107.5,183C 105.291,181.127 103.458,178.96 102,176.5C 101.5,158.503 101.333,140.503 101.5,122.5C 83.4969,122.667 65.4969,122.5 47.5,122C 41.3974,118.96 39.2307,114.126 41,107.5C 42.8734,105.291 45.04,103.458 47.5,102C 65.4969,101.5 83.4969,101.333 101.5,101.5C 101.333,83.4969 101.5,65.4969 102,47.5C 103.666,45.0043 105.5,42.671 107.5,40.5 Z"/></g>
<g><path style="opacity:1" fill="none" d="M -0.5,217.5 C 1.5,220.167 3.83333,222.5 6.5,224.5C 4.16667,224.5 1.83333,224.5 -0.5,224.5C -0.5,222.167 -0.5,219.833 -0.5,217.5 Z"/></g>
<g><path style="opacity:1" fill="none" d="M 224.5,215.5 C 224.5,218.5 224.5,221.5 224.5,224.5C 221.833,224.5 219.167,224.5 216.5,224.5C 220.601,222.734 223.268,219.734 224.5,215.5 Z"/></g>
</svg>
