<?xml version="1.0" standalone="yes"?>
<svg xmlns="http://www.w3.org/2000/svg" width="512" height="512">
<path style="fill:#ffffff; stroke:none;" d="M0 0L0 252C11.6528 244.67 29.5492 247.994 43 248C48.433 248.002 56.7037 248.504 56.7037 256C56.7037 263.496 48.433 263.998 43 264C29.5491 264.006 11.6529 267.33 0 260L0 512L252 512C244.67 500.347 247.994 482.451 248 469C248.002 463.567 248.504 455.296 256 455.296C263.496 455.296 263.998 463.567 264 469C264.006 482.451 267.33 500.347 260 512L512 512L512 260C500.347 267.33 482.451 264.006 469 264C463.567 263.998 455.296 263.496 455.296 256C455.296 248.504 463.567 248.002 469 248C482.451 247.994 500.347 244.67 512 252L512 0L260 0C267.33 11.6528 264.006 29.5492 264 43C263.998 48.433 263.496 56.7037 256 56.7037C248.504 56.7037 248.002 48.433 248 43C247.994 29.5492 244.67 11.6528 252 0L0 0z"/>
<path style="fill:#ffd347; stroke:none;" d="M252.109 1.02777C247.745 3.47415 248.007 8.67831 248 13C247.981 24.5335 245.336 39.8825 248.434 50.9954C249.788 55.8543 255.3 58.5461 259.891 55.9722C264.255 53.5259 263.993 48.3216 264 44C264.019 32.4665 266.664 17.1175 263.566 6.00464C262.212 1.14566 256.7 -1.54614 252.109 1.02777z"/>
<path style="fill:#ffdb49; stroke:none;" d="M248 4L249 5L248 4M263 4L264 5L263 4z"/>
<path style="fill:#ffd347; stroke:none;" d="M129.019 33.7462C123.89 35.7192 123.238 41.4292 125.074 46C129.629 57.3406 137.528 69.8461 144.465 79.9059C147.05 83.6562 151.337 86.1586 155.895 84.1412C160.832 81.9562 161.313 76.444 159.47 72C154.801 60.7395 147.126 47.9703 140.046 38.044C137.514 34.4951 133.436 32.047 129.019 33.7462M377.015 33.7462C372.642 35.4051 370.592 40.2156 368.421 44C363.115 53.2491 354.606 63.6768 351.816 74C350.112 80.3027 355.316 86.4596 361.96 84.4815C366.333 83.1793 368.33 78.6395 370.421 75C375.814 65.6146 385.075 54.5749 387.581 44C389.118 37.5119 383.886 31.1398 377.015 33.7462z"/>
<path style="fill:#ffdb49; stroke:none;" d="M248 52L249 53L248 52M263 52L264 53L263 52z"/>
<path style="fill:#ffd347; stroke:none;" d="M240 111.883C213.923 110.049 182.147 128 163 143.921C84.882 208.873 97.5431 338.757 189 385.244C203.441 392.584 220.622 399.174 237 399.896C249.272 400.436 262.585 395.97 274 392C325.236 374.18 365.159 324.724 368.91 270C374.131 193.842 319.981 117.51 240 111.883z"/>
<path style="fill:#ffc93d; stroke:none;" d="M241 111L241 112L253 112L241 111z"/>
<path style="fill:#ffbf31; stroke:none;" d="M245 112L245 113C262.742 113.368 281.874 121.873 297 130.579C389.292 183.704 392.566 315.835 306 375.717C289.072 387.426 265.999 398.564 245 399C257.586 404.331 278.191 399.557 291 396.373C338.939 384.46 376.228 349.163 392.946 303C418.418 232.662 380.923 153.481 314 123.312C291.727 113.271 268.882 111.802 245 112z"/>
<path style="fill:#ffc93d; stroke:none;" d="M259 111L259 112L271 112L259 111z"/>
<path style="fill:#ffd347; stroke:none;" d="M271 111L272 112L271 111z"/>
<path style="fill:#ffc93d; stroke:none;" d="M273 112L273 113L278 113L273 112M249 113L249 114L252 114L249 113M280 113L280 114L285 114L280 113M255 114L256 115L255 114M286 114L286 115L289 115L286 114M259 115L260 116L259 115M290 115L290 116L293 116L290 115M263 116L264 117L263 116M294 116L294 117L297 117L294 116M267 117L268 118L267 117M298.667 117.333L299.333 117.667L298.667 117.333M269.667 118.333L270.333 118.667L269.667 118.333M301.667 118.333L302.333 118.667L301.667 118.333M272.667 119.333L273.333 119.667L272.667 119.333M304.667 119.333L305.333 119.667L304.667 119.333M275 120L276 121L275 120M306.667 120.333L307.333 120.667L306.667 120.333M278 121L279 122L278 121M309.667 121.333L310.333 121.667L309.667 121.333M280 122L281 123L280 122M312.667 122.333L313.333 122.667L312.667 122.333M283 123L284 124L283 123M314.667 123.333L315.333 123.667L314.667 123.333z"/>
<path style="fill:#ffd347; stroke:none;" d="M37.1088 125.028C31.9487 127.923 32.3642 134.89 36.2284 138.61C44.4151 146.493 58.1113 151.816 68 157.421C72.01 159.693 76.3488 162.115 80.8665 159.542C86.5758 156.292 85.1204 149.139 80.8912 145.39C72.4361 137.894 59.8679 132.65 50 127.154C46.2123 125.045 41.3903 122.626 37.1088 125.028z"/>
<path style="fill:#ffc93d; stroke:none;" d="M285 124L286 125L285 124M316.667 124.333L317.333 124.667L316.667 124.333z"/>
<path style="fill:#ffd347; stroke:none;" d="M467 124.699C456.359 128.132 437.977 138.167 430.228 146.213C424.608 152.049 428.27 162.02 437 160.563C446.359 159.001 456.807 149.939 465 145.281C468.795 143.123 473.682 141.158 476.566 137.787C482.732 130.58 475.284 122.026 467 124.699z"/>
<path style="fill:#ffc93d; stroke:none;" d="M287 125L288 126L287 125M318.667 125.333L319.333 125.667L318.667 125.333M289 126L290 127L289 126M320.667 126.333L321.333 126.667L320.667 126.333M291 127L292 128L291 127M322.667 127.333L323.333 127.667L322.667 127.333M293 128L294 129L293 128M324.667 128.333L325.333 128.667L324.667 128.333M295 129L296 130L295 129M326.667 129.333L327.333 129.667L326.667 129.333M328 130L329 131L328 130M298 131L299 132L298 131M329.667 131.333L330.333 131.667L329.667 131.333M300 132L301 133L300 132M331.667 132.333L332.333 132.667L331.667 132.333M302 133L303 134L302 133M333 133L334 134L333 133M303 134L304 135L303 134M334.667 134.333L335.333 134.667L334.667 134.333M336 135L337 136L336 135M306 136L307 137L306 136M338 136L339 137L338 136M339 137L340 138L339 137M309 138L310 139L309 138M340.667 138.333L341.333 138.667L340.667 138.333M310 139L311 140L310 139M342 139L343 140L342 139M312 140L313 141L312 140M343 140L344 141L343 140M313 141L314 142L313 141M344.667 141.333L345.333 141.667L344.667 141.333M346 142L347 143L346 142M347 143L348 144L347 143M348 144L349 145L348 144M318 145L319 146L318 145M349 145L350 146L349 145M319 146L320 147L319 146M350.667 146.333L351.333 146.667L350.667 146.333M320 147L321 148L320 147M352 147L353 148L352 147M353 148L354 149L353 148M354 149L355 150L354 149M355 150L356 151L355 150M356 151L357 152L356 151M357 152L358 153L357 152M358 153L359 154L358 153M359 154L360 155L359 154M360 155L361 156L360 155M361 156L362 157L361 156M362 157L363 158L362 157M363 158L364 159L363 158M364 159L365 160L364 159M333 160L334 161L333 160M365.333 160.667L365.667 161.333L365.333 160.667M334 161L335 162L334 161M335 162L336 163L335 162M366 162L367 163L366 162M367 163L368 164L367 163M368 164L369 165L368 164M369 165L370 166L369 165M338 166L339 167L338 166M370.333 166.667L370.667 167.333L370.333 166.667M339 167L340 168L339 167M340 168L341 169L340 168M371 168L372 169L371 168M372 169L373 170L372 169M373.333 170.667L373.667 171.333L373.333 170.667M342 171L343 172L342 171M374 172L375 173L374 172M375 173L376 174L375 173M344 174L345 175L344 174M376 175L377 176L376 175M377.333 176.667L377.667 177.333L377.333 176.667M346 177L347 178L346 177M347 178L348 179L347 178M378 178L379 179L378 178M379.333 179.667L379.667 180.333L379.333 179.667M348 180L349 181L348 180M380.333 181.667L380.667 182.333L380.333 181.667M349 182L350 183L349 182M381 183L382 184L381 183M382.333 184.667L382.667 185.333L382.333 184.667M351 185L352 186L351 185M383.333 186.667L383.667 187.333L383.333 186.667M352 187L353 188L352 187M384.333 188.667L384.667 189.333L384.333 188.667M353 189L354 190L353 189M385.333 190.667L385.667 191.333L385.333 190.667M354 191L355 192L354 191M386.333 192.667L386.667 193.333L386.333 192.667M355 193L356 194L355 193M387.333 194.667L387.667 195.333L387.333 194.667M356 195L357 196L356 195M388.333 196.667L388.667 197.333L388.333 196.667M357 197L358 198L357 197M389.333 198.667L389.667 199.333L389.333 198.667M358 200L359 201L358 200M390.333 201.667L390.667 202.333L390.333 201.667M359 202L360 203L359 202M360.333 204.667L360.667 205.333L360.333 204.667M391.333 204.667L391.667 205.333L391.333 204.667M392.333 206.667L392.667 207.333L392.333 206.667M361.333 207.667L361.667 208.333L361.333 207.667M393.333 209.667L393.667 210.333L393.333 209.667M362.333 210.667L362.667 211.333L362.333 210.667M394.333 212.667L394.667 213.333L394.333 212.667M363.333 213.667L363.667 214.333L363.333 213.667M395 215L395 218L396 218L395 215M364.333 216.667L364.667 217.333L364.333 216.667M396 219L396 222L397 222L396 219M365.333 220.667L365.667 221.333L365.333 220.667M397 223L397 226L398 226L397 223M366.333 225.667L366.667 226.333L366.333 225.667M398 227L398 232L399 232L398 227M367 229L367 232L368 232L367 229M399 234L399 238L400 238L399 234M368 236L368 239L369 239L368 236M400 241L400 253L401 253L400 241M369 245L369 255L370 255L369 245z"/>
<path style="fill:#ffd347; stroke:none;" d="M4.05864 249.028C-1.62446 252.14 -0.995498 261.079 5.01929 263.397C14.5974 267.088 30.7483 264 41 264C44.9738 264 50.4608 264.932 53.8519 262.397C59.0978 258.475 57.2002 249.903 50.9954 248.318C40.8771 245.733 27.4441 248 17 248C13.0717 248 7.6297 247.072 4.05864 249.028M459.059 249.028C453.375 252.14 454.004 261.079 460.019 263.397C469.597 267.088 485.748 264 496 264C499.974 264 505.461 264.932 508.852 262.397C514.098 258.475 512.2 249.903 505.995 248.318C495.877 245.733 482.444 248 472 248C468.072 248 462.63 247.072 459.059 249.028z"/>
<path style="fill:#ffc93d; stroke:none;" d="M369 257L369 267L370 267L369 257M400 259L400 271L401 271L400 259M368 273L368 276L369 276L368 273M399 274L399 278L400 278L399 274M367 280L367 283L368 283L367 280M398 280L398 285L399 285L398 280M366.333 285.667L366.667 286.333L366.333 285.667M397 286L397 289L398 289L397 286M365 290L366 291L365 290M396 290L396 293L397 293L396 290M364.333 294.667L364.667 295.333L364.333 294.667M395 294L395 297L396 297L395 294M363.333 297.667L363.667 298.333L363.333 297.667M394.333 298.667L394.667 299.333L394.333 298.667M362.333 300.667L362.667 301.333L362.333 300.667M393.333 301.667L393.667 302.333L393.333 301.667M361.333 303.667L361.667 304.333L361.333 303.667M392.333 304.667L392.667 305.333L392.333 304.667M360.333 306.667L360.667 307.333L360.333 306.667M391.333 306.667L391.667 307.333L391.333 306.667M359 309L360 310L359 309M390.333 309.667L390.667 310.333L390.333 309.667M358 311L359 312L358 311M389.333 312.667L389.667 313.333L389.333 312.667M357 314L358 315L357 314M388.333 314.667L388.667 315.333L388.333 314.667M356 316L357 317L356 316M387.333 316.667L387.667 317.333L387.333 316.667M355 318L356 319L355 318M386.333 318.667L386.667 319.333L386.333 318.667M354 320L355 321L354 320M385.333 320.667L385.667 321.333L385.333 320.667M353 322L354 323L353 322M384.333 322.667L384.667 323.333L384.333 322.667M352 324L353 325L352 324M383.333 324.667L383.667 325.333L383.333 324.667M351 326L352 327L351 326M382.333 326.667L382.667 327.333L382.333 326.667M381 328L382 329L381 328M349 329L350 330L349 329M380.333 329.667L380.667 330.333L380.333 329.667M348 331L349 332L348 331M379.333 331.667L379.667 332.333L379.333 331.667M347 333L348 334L347 333M378 333L379 334L378 333M346 334L347 335L346 334M377.333 334.667L377.667 335.333L377.333 334.667M376 336L377 337L376 336M344 337L345 338L344 337M375 338L376 339L375 338M374 339L375 340L374 339M342 340L343 341L342 340M373.333 340.667L373.667 341.333L373.333 340.667M372 342L373 343L372 342M340 343L341 344L340 343M371 343L372 344L371 343M339 344L340 345L339 344M370.333 344.667L370.667 345.333L370.333 344.667M338 345L339 346L338 345M369 346L370 347L369 346M368 347L369 348L368 347M367 348L368 349L367 348M335 349L336 350L335 349M366 349L367 350L366 349M334 350L335 351L334 350M365.333 350.667L365.667 351.333L365.333 350.667z"/>
<path style="fill:#ffd347; stroke:none;" d="M75 351.576C64.3685 353.494 44.0037 365.903 36.2284 373.39C30.559 378.849 33.7098 388.398 42 387.873C52.1794 387.228 74.7293 373.1 81.7716 365.787C87.3519 359.993 83.6281 350.019 75 351.576z"/>
<path style="fill:#ffc93d; stroke:none;" d="M333 351L334 352L333 351z"/>
<path style="fill:#ffd347; stroke:none;" d="M433.043 351.693C426.456 353.542 426.009 361.406 430.228 365.787C437.823 373.673 451.482 378.919 461 384.28C464.851 386.449 469.379 389.17 473.956 387.396C479.945 385.074 479.902 377.367 475.772 373.39C467.854 365.766 454.583 360.537 445 355.154C441.446 353.157 437.308 350.496 433.043 351.693z"/>
<path style="fill:#ffc93d; stroke:none;" d="M364 352L365 353L364 352M363 353L364 354L363 353M362 354L363 355L362 354M361 355L362 356L361 355M360 356L361 357L360 356M359 357L360 358L359 357M358 358L359 359L358 358M357 359L358 360L357 359M356 360L357 361L356 360M355 361L356 362L355 361M354 362L355 363L354 362M353 363L354 364L353 363M320 364L321 365L320 364M352 364L353 365L352 364M319 365L320 366L319 365M350.667 365.333L351.333 365.667L350.667 365.333M318 366L319 367L318 366M349 366L350 367L349 366M348 367L349 368L348 367M347 368L348 369L347 368M346 369L347 370L346 369M313 370L314 371L313 370M344.667 370.333L345.333 370.667L344.667 370.333M312 371L313 372L312 371M343 371L344 372L343 371M310 372L311 373L310 372M342 372L343 373L342 372M309 373L310 374L309 373M340.667 373.333L341.333 373.667L340.667 373.333M339 374L340 375L339 374M306 375L307 376L306 375M338 375L339 376L338 375M336 376L337 377L336 376M303 377L304 378L303 377M334.667 377.333L335.333 377.667L334.667 377.333M302 378L303 379L302 378M333 378L334 379L333 378M300 379L301 380L300 379M331.667 379.333L332.333 379.667L331.667 379.333M298 380L299 381L298 380M329.667 380.333L330.333 380.667L329.667 380.333M328 381L329 382L328 381M295 382L296 383L295 382M326.667 382.333L327.333 382.667L326.667 382.333M293 383L294 384L293 383M324.667 383.333L325.333 383.667L324.667 383.333M291 384L292 385L291 384M322.667 384.333L323.333 384.667L322.667 384.333M289 385L290 386L289 385M320.667 385.333L321.333 385.667L320.667 385.333M287 386L288 387L287 386M318.667 386.333L319.333 386.667L318.667 386.333M285 387L286 388L285 387M316.667 387.333L317.333 387.667L316.667 387.333M283 388L284 389L283 388M314.667 388.333L315.333 388.667L314.667 388.333M280 389L281 390L280 389M312.667 389.333L313.333 389.667L312.667 389.333M278 390L279 391L278 390M309.667 390.333L310.333 390.667L309.667 390.333M275 391L276 392L275 391M306.667 391.333L307.333 391.667L306.667 391.333M272.667 392.333L273.333 392.667L272.667 392.333M304.667 392.333L305.333 392.667L304.667 392.333M269.667 393.333L270.333 393.667L269.667 393.333M301.667 393.333L302.333 393.667L301.667 393.333M267 394L268 395L267 394M298.667 394.333L299.333 394.667L298.667 394.333M263 395L264 396L263 395M294 395L294 396L297 396L294 395M259 396L260 397L259 396M290 396L290 397L293 397L290 396M255 397L256 398L255 397M286 397L286 398L289 398L286 397M249 398L249 399L252 399L249 398M280 398L280 399L285 399L280 398M241 400L241 401L253 401L241 400M274 399L274 400L278 400L274 399z"/>
<path style="fill:#ffbf31; stroke:none;" d="M240 400L241 401L240 400z"/>
<path style="fill:#ffc93d; stroke:none;" d="M259 400L259 401L271 401L259 400z"/>
<path style="fill:#ffd347; stroke:none;" d="M150.004 427.758C145.473 429.376 143.239 434.117 141 438C135.734 447.135 127.943 456.945 124.699 467C122.664 473.306 126.701 480.446 133.996 478.562C138.669 477.355 140.786 472.84 143 469C148.493 459.474 157.308 448.641 160.184 438C161.852 431.829 156.588 425.406 150.004 427.758M357.043 427.668C351.972 429.187 350.532 434.392 352.137 439C356.127 450.458 364.907 464.076 371.954 473.956C374.436 477.435 378.6 480.017 382.981 478.393C388.139 476.48 388.738 470.511 386.926 466C382.489 454.954 374.806 442.809 368.046 433.015C365.533 429.376 361.72 426.268 357.043 427.668M252.109 456.028C247.745 458.474 248.007 463.678 248 468C247.981 479.534 245.336 494.882 248.434 505.995C249.788 510.854 255.3 513.546 259.891 510.972C264.255 508.526 263.993 503.322 264 499C264.019 487.466 266.664 472.118 263.566 461.005C262.212 456.146 256.7 453.454 252.109 456.028z"/>
<path style="fill:#ffdb49; stroke:none;" d="M248 459L249 460L248 459M263 459L264 460L263 459M248 507L249 508L248 507M263 507L264 508L263 507z"/>
</svg>
